<?xml version="1.0" encoding="utf-8"?>
<!-- Generator: Adobe Illustrator 24.1.2, SVG Export Plug-In . SVG Version: 6.00 Build 0)  -->
<svg version="1.1" xmlns="http://www.w3.org/2000/svg" xmlns:xlink="http://www.w3.org/1999/xlink" x="0px" y="0px"
	 viewBox="0 0 2200 2200" style="enable-background:new 0 0 2200 2200;" xml:space="preserve">
<style type="text/css">
	.st0{fill:#FFFFFF;}
	.st1{fill:#1176FF;}
	.st2{fill:#1052E5;}
</style>
<g id="Background">
	<rect class="st0" width="2200" height="2200"/>
</g>
<g id="Objects">
	<g>
		<path class="st1" d="M1940,1100c0,49.84-4.34,98.66-12.66,146.11C1858.19,1640.38,1514.08,1940,1100,1940
			c-12.72,0-25.37-0.28-37.95-0.84C615.74,1919.31,260,1551.2,260,1100c0-463.92,376.08-840,840-840S1940,636.08,1940,1100z"/>
		<path class="st2" d="M1927.34,1246.11C1858.19,1640.38,1514.08,1940,1100,1940c-12.72,0-25.37-0.28-37.95-0.84
			c-187.06-187.1-341.85-342.01-343.06-343.4c-24.36-21.09-37.6-53.25-33.93-86.61c8.15-74.21,31.67-148.08,85.43-181.54
			c99.07-61.65,197.41-87.92,197.41-87.92c3.47-10.78,7.36-46.46,9.4-82.98c-12.55-13.03-24.98-26.63-38.09-39.52
			c-21.18-20.82-26.42-49.21-32.96-84.96c-4.68-2.08-7.35-6.1-9.76-9.78c-0.02-0.03-0.04-0.07-0.07-0.11
			c-4.75-2.06-7.44-6.12-9.87-9.83c-0.02-0.03-0.04-0.07-0.07-0.11c-4.75-2.06-7.44-6.12-9.87-9.82c-2.96-4.54-4.13-9.97-5.23-15.27
			c-3.99-19.07-7.98-38.13-11.96-57.19c-3-14.32-6.01-28.99-3.98-43.48c0.98-6.85,3.41-14.03,9.04-18.06
			c5.62-4.03,15.02-3.06,17.84,3.27c0,0-9.12-89.73-9.12-82.18c-7.62-8.46-13.65-26.88-11.13-41.12
			c2.52-14.23,7.05-28.08,9.31-42.35c2.46-15.68,2.21-31.85,6.71-47.07c6.34-21.45,21.51-39.03,36.95-55.22
			c10.94-11.46,22.25-22.6,34.58-32.53c24.71-19.86,54.16-34.8,85.67-38.33c10.11-1.13,20.31-1.08,30.48-1.03
			c11.4,0.06,22.82,0.11,34.23,0.17c11.41-0.06,22.83-0.11,34.23-0.17c10.17-0.05,20.37-0.1,30.48,1.03
			c31.51,3.53,60.96,18.47,85.67,38.33c10.77,8.67,20.75,18.26,30.39,28.19C1282.78,601.51,1638.99,957.72,1927.34,1246.11z"/>
		<path class="st0" d="M1453.46,1612.68C1391.3,1638.1,1279.94,1668,1100,1668s-291.3-29.9-353.46-55.32
			c-41.33-16.9-66.36-59.14-61.48-103.53c8.15-74.21,31.68-148.08,85.44-181.53c99.07-61.65,197.41-87.92,197.41-87.92
			c3.46-10.78,7.36-46.46,9.4-82.98c-12.55-13.03-24.98-26.63-38.1-39.52c-24.97-24.54-27.77-59.6-36.69-104.84
			c-16.38,4.65-21.56-3.14-25.9-9.77c-2.96-4.53-4.13-9.97-5.24-15.27c-3.99-19.06-7.97-38.13-11.96-57.19
			c-3-14.32-6.01-28.99-3.97-43.48c0.97-6.85,3.41-14.03,9.03-18.06c5.63-4.02,15.02-3.05,17.84,3.27c0,0-9.12-89.73-9.12-82.17
			c-7.62-8.46-13.65-26.88-11.12-41.12c2.52-14.23,7.04-28.08,9.3-42.35c2.47-15.67,2.21-31.85,6.71-47.07
			c6.35-21.45,21.52-39.03,36.95-55.22c10.94-11.46,22.25-22.6,34.58-32.53c24.71-19.86,54.16-34.8,85.66-38.33
			c10.11-1.13,20.31-1.08,30.48-1.03c11.41,0.06,22.82,0.11,34.23,0.17c11.41-0.06,22.83-0.11,34.23-0.17
			c10.17-0.05,20.37-0.1,30.48,1.03c31.51,3.53,60.96,18.47,85.66,38.33c12.34,9.93,23.65,21.07,34.58,32.53
			c15.44,16.18,30.61,33.76,36.95,55.22c4.5,15.22,4.24,31.39,6.71,47.07c2.26,14.27,6.78,28.12,9.3,42.35
			c2.53,14.24-3.51,32.66-11.12,41.12c0-7.55-9.12,82.17-9.12,82.17c2.82-6.32,12.22-7.29,17.84-3.27
			c5.63,4.03,8.06,11.21,9.03,18.06c2.03,14.49-0.98,29.16-3.97,43.48c-3.98,19.06-7.97,38.13-11.96,57.19
			c-1.11,5.3-2.27,10.73-5.24,15.27c-4.35,6.63-9.53,14.43-25.9,9.77c-8.91,45.24-11.72,80.3-36.69,104.84
			c-13.11,12.89-25.55,26.49-38.1,39.52c2.04,36.53,5.93,72.2,9.4,82.98c0,0,98.34,26.27,197.41,87.92
			c53.76,33.46,77.28,107.33,85.44,181.53C1519.82,1553.53,1494.79,1595.77,1453.46,1612.68z"/>
	</g>
</g>
</svg>
