<?xml version="1.0" encoding="utf-8"?>
<!-- Generator: Adobe Illustrator 27.5.0, SVG Export Plug-In . SVG Version: 6.00 Build 0)  -->
<svg version="1.1" id="Layer_1" xmlns="http://www.w3.org/2000/svg" xmlns:xlink="http://www.w3.org/1999/xlink" x="0px" y="0px"
	 viewBox="0 0 2000 2000" style="enable-background:new 0 0 2000 2000;" xml:space="preserve">
<g>
	<rect style="fill:#FFFFFF;" width="2000" height="2000"/>
	<path style="fill:none;" d="M1453.583,1793.47c-0.241,0.002-0.48,0.345-0.721,0.53c0.312-0.188,0.7-0.378,1.087-0.571
		C1453.826,1793.432,1453.706,1793.469,1453.583,1793.47z"/>
	<path style="fill:none;" d="M613.127,481.521L613.127,481.521c0.034-0.002,0.067-0.008,0.101-0.009
		c-0.006-0.032-0.013-0.064-0.019-0.096C613.186,481.456,613.15,481.48,613.127,481.521z"/>
	<path style="fill:none;" d="M483.866,757.373c-0.24,0.458-0.479,0.916-0.718,1.375
		C483.577,758.343,483.758,757.868,483.866,757.373z"/>
	<g>
		<path style="fill:#CCCCCC;" d="M1668,1000c0,180.416-71.513,344.131-187.764,464.297c-6.699,6.94-13.564,13.731-20.56,20.374
			C1339.919,1598.305,1178.096,1668,1000,1668s-339.919-69.695-459.677-183.329c-6.996-6.643-13.861-13.434-20.56-20.374
			C403.513,1344.131,332,1180.416,332,1000c0-368.94,299.078-668,668-668S1668,631.06,1668,1000z"/>
		<path style="fill:#4D4D4D;" d="M1419.578,1438.839c-38.874-18.871-76.208-41.156-117.809-54.089
			c-2.561-3.489-5.993-5.604-10.168-6.587c-20.318-10.688-39.542-24.382-64.091-23.547c-9.983-1.299-19.984-2.616-29.967-3.934
			c-3.748-8.48-5.14-17.127-5.14-26.163c0-2.653,0.112-5.344,0.334-8.072c1.985-24.382,2.783-48.875,4.064-73.313
			c2.357-5.029,4.546-10.15,7.088-15.067c16.143-31.155,24.475-64.388,26.757-99.254c1.262-6.698,2.523-13.341,3.786-20.04
			c8.387-7.775,21.505-5.771,29.503-14.752c11.764-13.211,15.364-29.299,17.776-45.98c4.676-8.406,8.609-17.09,10.02-26.72
			c6.346-13.713,8.814-27.369,8.814-40.989c0-19.223-4.917-38.373-10.688-57.429c-2.078-6.866-6.847-15.939-13.137-16.551
			c-13.954-1.373-11.931-10.039-12.061-18.147c0.13-3.154,0.334-8.257,0.445-11.393c2.227-19.298,4.453-38.577,6.68-57.875
			c5.715-37.89-0.854-75.28-4.991-112.743c-0.056-0.557-0.297-1.095-0.668-1.596c-2.802-3.971-4.639-8.554-4.657-13.416v-0.353
			c-0.334-13.843-9.519-24.159-14.436-36.165c-3.173-9.556-5.01-15.921-7.96-21.673c-2.969-5.752-7.051-10.892-14.696-17.98
			l-10.688-8.202c-7.051-7.83-13.768-16.088-23.083-20.801c-8.609-4.361-16.644-9.76-23.51-16.533l-0.13-0.13
			c-8.257-2.486-15.809-6.624-23.733-9.89c-1.039-0.315-2.097-0.408-3.173-0.334c-0.037-0.093-0.093-0.204-0.13-0.315
			c-1.466-3.767-5.288-5.789-9.315-5.734c-2.375,0.037-4.509-2.357-7.533-4.583c-9.408-6.94-17.442-16.681-29.782-18.518
			c-0.408-0.408-0.872-0.724-1.243-1.169c-0.687-0.26-1.54-0.594-2.227-0.872c-5.474,0.278-7.886-6.903-13.75-5.715
			c-21.58-7.497-43.327-13.991-66.206-13.861c-6.587,0.037-13.156,0.037-19.743,0c-22.879-0.13-44.626,6.364-66.206,13.861
			c-5.864-1.188-8.276,5.993-13.75,5.715c-0.687,0.278-1.54,0.612-2.227,0.872c-0.371,0.445-0.835,0.761-1.243,1.169
			c-12.339,1.837-20.374,11.579-29.782,18.518c-3.025,2.227-5.158,4.62-7.534,4.583c-4.026-0.056-7.849,1.967-9.315,5.734
			c-0.037,0.112-0.093,0.223-0.13,0.315c-1.076-0.074-2.134,0.019-3.173,0.334c-3.433,1.41-6.81,2.987-10.187,4.528
			c-10.002,4.546-19.094,10.836-26.906,18.537l-0.13,0.13c-15.067,2.579-23.862,13.75-33.233,24.159
			c-5.363,4.12-10.187,8.851-14.399,14.084c-4.194,5.251-7.756,10.985-10.595,17.127c-2.023,4.324-4.268,9.315-8.35,16.644
			c-2.468,5.993-5.993,11.579-8.944,17.386c-2.95,5.826-5.325,11.857-5.492,18.778v0.353c-0.019,4.861-1.856,9.445-4.657,13.416
			c-0.371,0.501-0.612,1.039-0.668,1.596c-4.379,39.616-11.486,79.14-3.897,119.294c1.874,17.331,3.73,34.606,5.604,51.956
			l0.427,10.744c-0.13,8.127,1.893,16.793-12.061,18.166c-6.29,0.612-11.059,9.686-13.137,16.551
			c-9.853,32.547-17.201,65.315-1.874,98.419c0.705,4.806,2.041,9.389,3.785,13.824c1.744,4.417,3.897,8.684,6.235,12.896
			c2.412,16.681,6.012,32.769,17.776,45.98c7.997,8.981,21.116,6.977,29.503,14.752c1.262,6.698,2.524,13.342,3.785,20.04
			c2.282,34.866,10.614,68.099,26.757,99.254c2.542,4.917,4.732,10.039,7.088,15.067c1.28,24.438,2.078,48.931,4.064,73.313
			c0.965,12.005,0.037,23.268-4.806,34.235c-9.983,1.317-19.984,2.635-29.967,3.934c-24.549-0.835-43.773,12.859-64.091,23.547
			c-4.175,0.983-7.608,3.099-10.168,6.587c-20.801,6.476-40.544,15.271-59.934,24.809c-19.391,9.556-38.429,19.854-57.875,29.281
			c-20.541,7.775-40.748,16.273-60.658,25.458c6.698,6.94,13.564,13.731,20.56,20.374C660.081,1598.305,821.904,1668,1000,1668
			s339.919-69.695,459.677-183.329c6.995-6.643,13.861-13.434,20.56-20.374C1460.326,1455.112,1440.119,1446.614,1419.578,1438.839z
			 M950.976,707.583c0-0.056,0.018-0.13,0.018-0.185c0.056,0.074,0.111,0.13,0.167,0.204
			C951.088,707.601,951.032,707.583,950.976,707.583z M1048.838,707.601c0.056-0.074,0.111-0.13,0.167-0.204
			c0,0.055,0.018,0.13,0.018,0.185C1048.968,707.583,1048.912,707.601,1048.838,707.601z"/>
	</g>
</g>
</svg>
