<?xml version="1.0" encoding="utf-8"?>
<!-- Generator: Adobe Illustrator 27.5.0, SVG Export Plug-In . SVG Version: 6.00 Build 0)  -->
<svg version="1.1" id="Ñëîé_1" xmlns="http://www.w3.org/2000/svg" xmlns:xlink="http://www.w3.org/1999/xlink" x="0px" y="0px"
	 viewBox="0 0 2000 2000" style="enable-background:new 0 0 2000 2000;" xml:space="preserve">
<rect style="fill:#FFFFFF;" width="2000" height="2000"/>
<g>
	<g id="XMLID_1_">
		<g>
			<path d="M1737.11,1287.805c15.84-61.58,23.82-125.07,23.82-189.77c0-33.01-2.08-65.71-6.22-98
				c-8.74-68.18-26.66-134.55-53.6-198.22c-3.7-8.76-7.56-17.43-11.57-26.01c-37.5-80.24-88.37-152.75-151.5-215.88
				c-16.44-16.44-33.52-32.05-51.2-46.8c-57.48-47.98-121.38-86.96-190.69-116.27c-34.73-14.69-70.26-26.7-106.45-36
				c-61.58-15.84-125.07-23.82-189.77-23.82s-128.19,7.98-189.77,23.82c59.34-26.83,123.07-45.62,189.77-55
				c32.03-4.49,64.75-6.82,98-6.82c43.08,0,85.27,3.91,126.23,11.39c119.1,21.74,227.79,73.68,317.81,147.57
				c83.12,68.21,150.34,155.14,195.14,254.27c39.71,87.84,61.82,185.27,61.82,287.77S1776.82,1199.965,1737.11,1287.805z"/>
			<path d="M1700.93,1098.035c0,43.08-3.91,85.27-11.39,126.23c-21.74,119.1-73.68,227.79-147.57,317.81
				c-68.21,83.12-155.14,150.34-254.27,195.14c-87.84,39.71-185.27,61.82-287.77,61.82s-199.93-22.11-287.77-61.82
				c61.58,15.84,125.07,23.82,189.77,23.82c33.01,0,65.71-2.08,98-6.22c68.18-8.74,134.55-26.66,198.22-53.6
				c8.76-3.7,17.43-7.56,26.01-11.57c80.24-37.5,152.75-88.37,215.88-151.5c16.44-16.44,32.05-33.52,46.8-51.2
				c47.98-57.48,86.96-121.38,116.27-190.69c14.69-34.73,26.7-70.26,36-106.45c15.84-61.58,23.82-125.07,23.82-189.77
				c0-64.7-7.98-128.19-23.82-189.77c26.83,59.34,45.62,123.07,55,189.77C1698.6,1032.065,1700.93,1064.785,1700.93,1098.035z"/>
			<path d="M1189.7,1639.215c-59.34,26.83-123.07,45.62-189.77,55c-32.03,4.49-64.75,6.82-98,6.82c-43.08,0-85.27-3.91-126.23-11.39
				c-119.1-21.74-227.79-73.68-317.81-147.57c-83.12-68.21-150.34-155.14-195.14-254.27c-39.71-87.84-61.82-185.27-61.82-287.77
				s22.11-199.93,61.82-287.77c-15.84,61.58-23.82,125.07-23.82,189.77c0,33.01,2.08,65.71,6.22,98
				c8.74,68.18,26.66,134.55,53.6,198.22c3.7,8.76,7.56,17.43,11.57,26.01c37.5,80.24,88.37,152.75,151.5,215.88
				c16.44,16.44,33.52,32.05,51.2,46.8c57.48,47.98,121.38,86.96,190.69,116.27c34.73,14.69,70.26,26.7,106.45,36
				c61.58,15.84,125.07,23.82,189.77,23.82S1128.12,1655.055,1189.7,1639.215z"/>
			<path d="M1287.7,262.855c-61.58-15.84-125.07-23.82-189.77-23.82c-33.01,0-65.71,2.08-98,6.22
				c-68.18,8.74-134.55,26.66-198.22,53.6c-8.76,3.7-17.43,7.56-26.01,11.57c-80.24,37.5-152.75,88.37-215.88,151.5
				c-16.44,16.44-32.05,33.52-46.8,51.2c-47.98,57.48-86.96,121.38-116.27,190.69c-14.69,34.73-26.7,70.26-36,106.45
				c-15.84,61.58-23.82,125.07-23.82,189.77c0,64.7,7.98,128.19,23.82,189.77c-26.83-59.34-45.62-123.07-55-189.77
				c-4.49-32.03-6.82-64.75-6.82-98c0-43.08,3.91-85.27,11.39-126.23c21.74-119.1,73.68-227.79,147.57-317.81
				c68.21-83.12,155.14-150.34,254.27-195.14c87.84-39.71,185.27-61.82,287.77-61.82S1199.86,223.145,1287.7,262.855z"/>
		</g>
	</g>
</g>
</svg>
